<svg id="Layer_1" xmlns="http://www.w3.org/2000/svg" viewBox="0 0 61 61"><style>.st0{fill-rule:evenodd;clip-rule:evenodd;fill:#E3ECF8;} .st1{fill:#4163AE;} .st2{fill:#89ACDA;} .st3{fill:#ADC7E8;}</style><path class="st0" d="M8 0h45c4.4 0 8 3.6 8 8v45c0 4.4-3.6 8-8 8H8c-4.4 0-8-3.6-8-8V8c0-4.4 3.6-8 8-8z"/><g id="XMLID_55_"><path id="XMLID_58_" class="st1" d="M25.5 26.5v7c0 1.6.8 2.7 2 3v7h6v-7c1.2-.2 2-1.3 2-3v-7h-10zm5-1c2.2 0 4-1.8 4-4s-1.8-4-4-4-4 1.8-4 4 1.8 4 4 4z"/></g><g id="XMLID_2_"><g id="XMLID_35_"><path id="XMLID_36_" class="st2" d="M13.5 28.1v5.5c0 1.3.6 2.2 1.6 2.3v5.6h4.8v-5.6c1-.2 1.6-1 1.6-2.3v-5.5h-8zm4-.8c1.8 0 3.2-1.4 3.2-3.2 0-1.7-1.4-3.2-3.2-3.2-1.8 0-3.2 1.4-3.2 3.2 0 1.8 1.4 3.2 3.2 3.2z"/></g></g><g id="XMLID_3_"><g id="XMLID_50_"><path id="XMLID_51_" class="st3" d="M5 28.7v4c0 .9.5 1.6 1.2 1.7v4.1h3.6v-4.1c.7-.1 1.2-.8 1.2-1.7v-4H5zm3-.6c1.3 0 2.4-1 2.4-2.3 0-1.3-1.1-2.3-2.4-2.3-1.3 0-2.4 1-2.4 2.3 0 1.3 1.1 2.3 2.4 2.3z"/></g></g></svg>