<svg id="Layer_1" xmlns="http://www.w3.org/2000/svg" viewBox="-288 380.5 35 32.5"><style>.st0{fill:#83B8E3;}</style><g id="XMLID_74_"><g id="XMLID_75_"><path class="st0" d="M-256.3 401.3h-5.2v-11.9c0-.3-.2-.5-.5-.5s-.5.2-.5.5v11.9h-22.2c-1.5 0-2.8 1.2-2.8 2.8v4.5c0 1.5 1.2 2.8 2.8 2.8h.6v.6c0 .3.2.5.5.5s.5-.2.5-.5v-.6h25.2v.6c0 .3.2.5.5.5s.5-.2.5-.5v-.6h.6c1.5 0 2.8-1.2 2.8-2.8v-4.5c0-1.5-1.2-2.8-2.8-2.8zm-16.4 9.1h-12c-1 0-1.8-.8-1.8-1.8v-4.5c0-1 .8-1.8 1.8-1.8h12v8.1zm18.2-1.8c0 1-.8 1.8-1.8 1.8h-15.4v-8h15.4c1 0 1.8.8 1.8 1.8v4.4zm-29.1-1.7h8c.3 0 .5-.2.5-.5s-.2-.5-.5-.5h-8c-.3 0-.5.2-.5.5s.2.5.5.5zm16.5-1.6c-.6 0-1.1.5-1.1 1.1s.5 1.1 1.1 1.1 1.1-.5 1.1-1.1-.5-1.1-1.1-1.1zm-.1 1.1c0-.1.1-.1 0 0 .1-.1.1 0 .1 0h-.1zm3.5-1.1c-.6 0-1.1.5-1.1 1.1s.5 1.1 1.1 1.1c.6 0 1.1-.5 1.1-1.1s-.5-1.1-1.1-1.1zm0 1.1c0-.1 0-.1 0 0 .1-.1.1 0 .1 0h-.1zm3.4-1.1c-.6 0-1.1.5-1.1 1.1s.5 1.1 1.1 1.1c.6 0 1.1-.5 1.1-1.1s-.5-1.1-1.1-1.1zm0 1.1c0-.1 0-.1 0 0 .1-.1.1 0 0 0 .1 0 0 0 0 0zm-5.6-17c0 .3.2.5.5.5s.5-.2.5-.5c0-1.6 1.3-2.9 2.9-2.9s2.9 1.3 2.9 2.9c0 .3.2.5.5.5s.5-.2.5-.5c0-2.1-1.7-3.9-3.9-3.9-2.1 0-3.9 1.8-3.9 3.9zm-4 .5c.3 0 .5-.2.5-.5 0-4.1 3.3-7.4 7.5-7.4s7.5 3.3 7.5 7.4c0 .3.2.5.5.5s.5-.2.5-.5c0-4.6-3.8-8.4-8.5-8.4s-8.5 3.8-8.5 8.4c0 .3.2.5.5.5z"/><path class="st0" d="M-257.4 413c-.6 0-1-.4-1-1v-.1h-24.2v.1c0 .6-.4 1-1 1s-1-.4-1-1v-.1h-.1c-1.8 0-3.3-1.5-3.3-3.3v-4.5c0-1.8 1.5-3.3 3.3-3.3h21.7v-11.4c0-.6.4-1 1-1s1 .4 1 1v11.4h4.7c1.8 0 3.3 1.5 3.3 3.3v4.5c0 1.8-1.5 3.3-3.3 3.3h-.1v.1c0 .6-.4 1-1 1zm-26.2-2.1h26.2v1.1-1.1h1.1c1.3 0 2.3-1 2.3-2.3v-4.5c0-1.3-1-2.3-2.3-2.3h-15.9v.1h15.9c1.3 0 2.3 1 2.3 2.3v4.4c0 1.3-1 2.3-2.3 2.3h-28.4c-1.3 0-2.3-1-2.3-2.3 0 1.3 1 2.3 2.3 2.3h1.1v1.1-1.1zm12.4-1h14.9c.7 0 1.3-.6 1.3-1.3v-4.4c0-.7-.6-1.3-1.3-1.3h-14.9v7zm-13.5-7.1c-.7 0-1.3.6-1.3 1.3v4.5c0 .7.6 1.3 1.3 1.3h11.5v-7.1h-11.5zm24.4 5.2c-.9 0-1.6-.7-1.6-1.6 0-.9.7-1.6 1.6-1.6.9 0 1.6.7 1.6 1.6 0 .9-.7 1.6-1.6 1.6zm-.1-2.2c-.3.1-.5.3-.5.6 0 .1 0 .2.1.3v-.4h.4l-.3-.3.3-.2zm0 0l.5.1c-.2-.1-.3-.1-.5-.1zm-3.3 2.2c-.9 0-1.6-.7-1.6-1.6 0-.9.7-1.6 1.6-1.6.9 0 1.6.7 1.6 1.6 0 .9-.7 1.6-1.6 1.6zm-.1-2.2c-.3.1-.5.3-.5.6 0 .1 0 .2.1.3v-.4h.4l-.3-.3.3-.2zm0 0l.5.1c-.2-.1-.3-.1-.5-.1zm-3.3 2.2c-.9 0-1.6-.7-1.6-1.6 0-.9.7-1.6 1.6-1.6.9 0 1.6.7 1.6 1.6 0 .9-.7 1.6-1.6 1.6zm-.3-1.1c.4.2.9-.1.9-.5 0-.1 0-.3-.1-.4v.2l.1.1-.3.3-.2-.2v.4h-.4zm-8.2.5h-8c-.6 0-1-.4-1-1s.4-1 1-1h8c.6 0 1 .4 1 1s-.4 1-1 1zm-8-1h8-8zm29.7-16c-.6 0-1-.4-1-1 0-3.9-3.1-6.9-7-6.9s-7 3-7 6.9c0 .6-.4 1-1 1s-1-.4-1-1c0-4.9 4-8.9 9-8.9s9 4 9 8.9c0 .6-.4 1-1 1zm-15.7-3.2c-.2.7-.3 1.5-.3 2.2 0-.8.1-1.5.3-2.2zm11 3.2c-.6 0-1-.4-1-1 0-1.3-1.1-2.4-2.4-2.4s-2.4 1.1-2.4 2.4c0 .6-.4 1-1 1s-1-.4-1-1c0-2.4 2-4.4 4.4-4.4 2.4 0 4.4 2 4.4 4.4 0 .6-.4 1-1 1zm-6.7-1.6c0 .2-.1.4-.1.6 0-.2 0-.4.1-.6z"/></g></g></svg>