<svg id="Layer_1" xmlns="http://www.w3.org/2000/svg" viewBox="0 0 61 61"><style>.st0{fill-rule:evenodd;clip-rule:evenodd;fill:#FEE7D7;} .st1{fill-rule:evenodd;clip-rule:evenodd;fill:#F36E21;}</style><path class="st0" d="M8 0h45c4.4 0 8 3.6 8 8v45c0 4.4-3.6 8-8 8H8c-4.4 0-8-3.6-8-8V8c0-4.4 3.6-8 8-8z"/><g id="XMLID_44_"><path id="XMLID_45_" class="st1" d="M12.5 10.5c-1.4 0-2.5 1.1-2.5 2.5v35c0 1.4 1.1 2.5 2.5 2.5S15 49.4 15 48V13c0-1.4-1.1-2.5-2.5-2.5zm9 20c-1.4 0-2.5 1.1-2.5 2.5v15c0 1.4 1.1 2.5 2.5 2.5S24 49.4 24 48V33c0-1.4-1.1-2.5-2.5-2.5zm27 0c-1.4 0-2.5 1.1-2.5 2.5v15c0 1.4 1.1 2.5 2.5 2.5S51 49.4 51 48V33c0-1.4-1.1-2.5-2.5-2.5zm-18-10c-1.4 0-2.5 1.1-2.5 2.5v25c0 1.4 1.1 2.5 2.5 2.5S33 49.4 33 48V23c0-1.4-1.1-2.5-2.5-2.5zm9-7c-1.4 0-2.5 1.1-2.5 2.5v32c0 1.4 1.1 2.5 2.5 2.5S42 49.4 42 48V16c0-1.4-1.1-2.5-2.5-2.5z"/></g></svg>