<svg id="Layer_1" xmlns="http://www.w3.org/2000/svg" viewBox="0 0 61 61"><style>.st0{fill-rule:evenodd;clip-rule:evenodd;fill:#D8EEE8;} .st1{fill:#70C6A8;} .st2{fill:#29B678;}</style><path class="st0" d="M8 0h45c4.4 0 8 3.6 8 8v45c0 4.4-3.6 8-8 8H8c-4.4 0-8-3.6-8-8V8c0-4.4 3.6-8 8-8z"/><path class="st1" d="M47.4 31.2c-.3-.4-7.7-9.7-17.1-9.7-9.4 0-16.8 9.3-17.1 9.7-.2.2-.2.5 0 .7.3.4 7.7 8.6 17.1 8.6 9.4 0 16.8-8.2 17.1-8.6.1-.2.1-.5 0-.7zm-17.1 6c-3.5 0-6.3-2.8-6.3-6.1 0-3.4 2.8-6.1 6.3-6.1s6.3 2.8 6.3 6.1-2.9 6.1-6.3 6.1z"/><g id="XMLID_14_"><path id="XMLID_15_" class="st2" d="M31.2 26.5c-2.5 0-4.5 2-4.5 4.4 0 2.4 2 4.4 4.5 4.4s4.5-2 4.5-4.4c0-2.4-2-4.4-4.5-4.4z"/></g></svg>