<svg id="Layer_1" xmlns="http://www.w3.org/2000/svg" viewBox="-287 383 35.5 28"><style>.st0{fill:#83B8E3;}</style><g id="XMLID_50_"><path class="st0" d="M-265 411h-20c-1.1 0-2-.9-2-2v-11c0-1.1.9-2 2-2h2v-2c0-1.1.9-2 2-2h2v2h-2v11h20v-2h-16c-1.1 0-2-.9-2-2v-11c0-1.1.9-2 2-2h4v2h-4v11h20v-4h2v4c0 1.1-.9 2-2 2h-2v2c0 1.1-.9 2-2 2h-20c-1.1 0-2-.9-2-2v-7h-2v11h20v-2h2v2c0 1.1-.9 2-2 2zm-20-1h20-20zm4-4h20-20zm4-4h20-20zm13-3c-4.2 0-7.5-3.2-9.2-5.2l-.2-.2c-.2-.3-.2-.7 0-1l.1-.1c1.4-1.5 4.9-4.9 9.3-4.9s7.9 3.4 9.2 4.9l.1.1c.3.3.3.8.1 1.2l-.2.2c-1.7 1.8-5 5-9.2 5zm-8.5-5.9s.1.1 0 0c1.3 1.5 4.6 4.9 8.5 4.9-3.5 0-6.6-2.9-8.2-4.6l-.3-.3.3-.4c.6-.7 4-4.3 8.2-4.3-4 .1-7.2 3.3-8.5 4.7zm8.5-4.6c4.1 0 7.5 3.6 8.2 4.3l.3.3-.3.3c-1.4 1.5-3.9 3.9-6.9 4.5 2.4-.4 5-2.1 7.2-4.7v-.1-.1c-1.3-1.3-4.5-4.5-8.5-4.5zm-7.1 4.6c1.5 1.6 4.2 3.9 7.1 3.9-2.2 0-3.9-1.7-3.9-3.9 0-1.3.7-2.5 1.7-3.2-2.3.8-4.2 2.5-4.9 3.2zm9.3-3.2c1 .7 1.7 1.9 1.7 3.2 0 2.2-1.7 3.9-3.9 3.9 2.9 0 5.6-2.3 7.1-3.9-.7-.7-2.6-2.4-4.9-3.2zm-5.1 3.2c0 1.6 1.3 2.9 2.9 2.9s2.9-1.3 2.9-2.9c0 1.6-1.3 2.9-2.9 2.9s-2.9-1.3-2.9-2.9zm1.4-1c.6 0 1 .4 1 1 0 .3.3.5.5.5.3 0 .5-.3.5-.5 0-.3-.3-.5-.5-.5-.6 0-1-.4-1-1v-.1c-.2.2-.5.4-.6.6h.1zm1.5-1.9c1.6 0 2.9 1.3 2.9 2.9 0-1.6-1.3-2.9-2.9-2.9zm0 0c-1.6 0-2.9 1.3-2.9 2.9 0-1.6 1.3-2.9 2.9-2.9zm0 1.4c.8 0 1.5.7 1.5 1.5 0-.8-.7-1.5-1.5-1.5z" id="XMLID_51_"/></g></svg>